<svg xmlns="http://www.w3.org/2000/svg" width="346.273" height="89.186" viewBox="0 0 346.273 89.186">
  <g id="NVIDIA_NVLINK" data-name="NVIDIA NVLINK" transform="translate(-190.132 -473.701)">
    <g id="Group_1283" data-name="Group 1283" transform="translate(190.132 473.701)">
      <path id="Eye_Mark" data-name="Eye Mark" d="M209.086,483.73v-3.037q.443-.031.9-.045c8.306-.263,13.756,7.136,13.756,7.136s-5.885,8.172-12.194,8.172a7.7,7.7,0,0,1-2.457-.391v-9.208c3.234.391,3.885,1.818,5.828,5.058l4.323-3.643a11.447,11.447,0,0,0-8.477-4.141,16.025,16.025,0,0,0-1.675.1m0-10.029v4.536q.448-.036.9-.054c11.552-.388,19.076,9.471,19.076,9.471s-8.644,10.51-17.646,10.51a13.3,13.3,0,0,1-2.326-.2v2.8a15.588,15.588,0,0,0,1.935.125c8.381,0,14.439-4.279,20.306-9.346.973.779,4.956,2.675,5.775,3.505-5.578,4.67-18.581,8.435-25.95,8.435-.711,0-1.394-.042-2.066-.107v3.941h31.847V473.7Zm0,21.865v2.395c-7.748-1.382-9.9-9.438-9.9-9.438a16.766,16.766,0,0,1,9.9-4.792v2.627h-.012c-3.243-.391-5.775,2.64-5.775,2.64s1.418,5.1,5.786,6.569m-13.765-7.393a19.2,19.2,0,0,1,13.765-7.479v-2.457c-10.158.815-18.954,9.417-18.954,9.417s4.983,14.4,18.954,15.723v-2.613C198.833,499.475,195.321,488.173,195.321,488.173Z" transform="translate(-190.132 -473.701)" fill="#76b900"/>
      <path id="NVIDIA" d="M258.964,475.848l0,22.068H265.2V475.848Zm-49.024-.03v22.1h6.288v-16.78l4.87,0a4.577,4.577,0,0,1,3.541,1.23c.985,1.051,1.388,2.744,1.388,5.843v9.7l6.091,0V485.707c0-8.713-5.554-9.889-10.988-9.889H209.94m59.059.033v22.065h10.107c5.386,0,7.142-.9,9.044-2.905,1.344-1.409,2.212-4.506,2.212-7.885a13.085,13.085,0,0,0-2.018-7.593c-2.308-3.081-5.634-3.682-10.6-3.682Zm6.181,4.8h2.678c3.888,0,6.4,1.744,6.4,6.273s-2.514,6.276-6.4,6.276H275.18Zm-25.2-4.8-5.2,17.488L239.8,475.851h-6.727l7.118,22.065h8.981l7.172-22.065Zm43.282,22.065h6.231V475.851h-6.234Zm17.47-22.059-8.7,22.05h6.145l1.376-3.9h10.3l1.3,3.9h6.67l-8.766-22.05Zm4.046,4.025,3.774,10.328h-7.671Z" transform="translate(-150.797 -469.497)" fill="#fff"/>
      <g id="Group_1282" data-name="Group 1282" transform="translate(178.276 24.063)">
        <g id="Group_1281" data-name="Group 1281">
          <path id="Path_3328" data-name="Path 3328" d="M252.921,487.926a3.083,3.083,0,1,1,3.084-3.084A3.084,3.084,0,0,1,252.921,487.926Zm0-5.575a2.491,2.491,0,1,0,2.448,2.49A2.416,2.416,0,0,0,252.921,482.351Zm.555,4.126-.6-1.269h-.349v1.269H251.8V483.2h1.335a1.036,1.036,0,0,1,1.09,1.03.921.921,0,0,1-.6.869l.69,1.38Zm-.436-2.675h-.511v.851h.511a.426.426,0,1,0,0-.851Z" transform="translate(-249.84 -481.76)" fill="#fff"/>
        </g>
      </g>
    </g>
    <g id="Group_1284" data-name="Group 1284" transform="translate(201.809 517.986)">
      <path id="Path_3329" data-name="Path 3329" d="M222.259,528.6a17.148,17.148,0,0,1-23.875,0c-4.467-4.464-4.341-9.984-4.341-17.613s-.125-13.147,4.341-17.613a17.148,17.148,0,0,1,23.875,0c4.467,4.467,4.4,9.984,4.4,17.613S226.726,524.133,222.259,528.6Zm-6.387-30.016a7.161,7.161,0,0,0-5.521-2.356,7.3,7.3,0,0,0-5.58,2.356c-1.675,1.86-2.108,3.908-2.108,12.4s.433,10.543,2.108,12.4a7.3,7.3,0,0,0,5.58,2.359,7.163,7.163,0,0,0,5.521-2.359c1.675-1.86,2.171-3.905,2.171-12.4S217.548,500.44,215.872,498.58Z" transform="translate(-194.043 -488.533)" fill="#fff"/>
      <path id="Path_3330" data-name="Path 3330" d="M239.3,532.815V507.077l-8.435,16.744h-5.828l-8.5-16.744v25.738h-8.62V488.658h8.5l11.534,23.875,11.474-23.875h8.495v44.157Z" transform="translate(-166.49 -488.285)" fill="#fff"/>
      <path id="Path_3331" data-name="Path 3331" d="M250.875,532.815l-17.491-27.1v27.1h-8.62V488.658h7.691L249.943,515.7V488.658h8.62v44.157Z" transform="translate(-133.037 -488.285)" fill="#fff"/>
      <path id="Path_3332" data-name="Path 3332" d="M239.533,532.815V488.658h8.62v44.157Z" transform="translate(-103.708 -488.285)" fill="#fff"/>
      <path id="Path_3333" data-name="Path 3333" d="M265.232,532.815H258.78l-14.574-44.157h8.931l8.871,28.774,8.868-28.774h8.993Z" transform="translate(-94.429 -488.285)" fill="#fff"/>
      <path id="Path_3334" data-name="Path 3334" d="M257.936,532.815V488.658h29.088v7.688H266.559V506.7h17.425V514.4H266.559v10.728h20.465v7.691Z" transform="translate(-67.164 -488.285)" fill="#fff"/>
      <path id="Path_3335" data-name="Path 3335" d="M293.948,532.815,285.325,515.2h-6.2v17.613H270.5V488.658h17.3c8.993,0,14.326,6.139,14.326,13.52a11.89,11.89,0,0,1-8.062,11.6l9.862,19.04Zm-6.7-36.469h-8.124v11.66h8.124c3.783,0,6.264-2.418,6.264-5.828S291.03,496.346,287.247,496.346Z" transform="translate(-42.208 -488.285)" fill="#fff"/>
      <path id="Path_3336" data-name="Path 3336" d="M298.882,533.434c-6.7,0-11.782-1.427-16.123-5.828l5.58-5.583c2.792,2.792,6.575,3.723,10.668,3.723,5.085,0,7.814-1.923,7.814-5.458a4.919,4.919,0,0,0-1.365-3.72,6.582,6.582,0,0,0-3.908-1.553l-5.333-.743c-3.783-.558-6.575-1.738-8.56-3.658-2.108-2.111-3.162-4.963-3.162-8.683,0-7.876,5.831-13.4,15.38-13.4,6.079,0,10.483,1.49,14.266,5.147l-5.458,5.4c-2.792-2.666-6.142-3.04-9.056-3.04-4.589,0-6.823,2.544-6.823,5.583a4.257,4.257,0,0,0,1.3,3.162,7.579,7.579,0,0,0,4.091,1.738l5.21.744c4.031.558,6.575,1.675,8.435,3.41,2.356,2.233,3.41,5.458,3.41,9.366C315.253,528.6,308.123,533.434,298.882,533.434Z" transform="translate(-17.87 -488.533)" fill="#fff"/>
      <path id="Path_3337" data-name="Path 3337" d="M296.364,532.815V488.658h29.085v7.688H304.984V506.7h17.428V514.4H304.984v10.728h20.465v7.691Z" transform="translate(9.147 -488.285)" fill="#fff"/>
    </g>
  </g>
</svg>
